# xmcd
#
# Track frame offsets:
#	150
#	34467
#	84010
#	102124
#	133222
#	178555
#	214325
#	267532
#
# Disc length: 3998 seconds
#
# Revision: 1
# Processed by: cddbd v1.5.2PL0 Copyright (c) Steve Scherf et al.
# Submitted via: audiograbber 1.83.01
#
DISCID=700f9c08
DTITLE=Grateful Dead - 80-06-20 West High Auditorium, Anchorage AK
DYEAR=1900
DGENRE=
TTITLE0=Jack Straw
TTITLE1=Franklin's Tower
TTITLE2=Mama Tried
TTITLE3=Mexicali Blues
TTITLE4=Friend Of The Devil
TTITLE5=Let It Grow
TTITLE6=Althea
TTITLE7=Easy To Love You
EXTD=
EXTT0=
EXTT1=
EXTT2=
EXTT3=
EXTT4=
EXTT5=
EXTT6=
EXTT7=
PLAYORDER=
